<svg width="20" height="19" viewBox="0 0 20 19" fill="none" xmlns="http://www.w3.org/2000/svg">
<path fill-rule="evenodd" clip-rule="evenodd" d="M9.00549 0.75H10.9945C12.3805 0.749993 13.4828 0.749987 14.3716 0.814573C15.2819 0.880718 16.0575 1.01911 16.7658 1.34108C17.8617 1.83918 18.7552 2.62101 19.3245 3.57988C19.6925 4.19971 19.8506 4.87835 19.9262 5.67484C20 6.45257 20 7.41707 20 8.62984V10.3702C20 11.5829 20 12.5474 19.9262 13.3252C19.8506 14.1217 19.6925 14.8003 19.3245 15.4201C18.7552 16.379 17.8617 17.1608 16.7658 17.6589C16.0575 17.9809 15.2819 18.1193 14.3716 18.1854C13.4828 18.25 12.3805 18.25 10.9945 18.25H9.00553C7.6195 18.25 6.51722 18.25 5.62839 18.1854C4.71811 18.1193 3.94253 17.9809 3.23415 17.6589C2.13829 17.1608 1.24477 16.379 0.67552 15.4201C0.307549 14.8003 0.149392 14.1217 0.0737976 13.3252C-1.48416e-05 12.5474 -8.16777e-06 11.5829 1.7688e-07 10.3702V8.62981C-8.16777e-06 7.41705 -1.48416e-05 6.45256 0.0737976 5.67484C0.149392 4.87835 0.307549 4.19971 0.67552 3.57988C1.24477 2.62101 2.13829 1.83918 3.23415 1.34108C3.94253 1.01911 4.71811 0.880718 5.62839 0.814573C6.51721 0.749987 7.61949 0.749993 9.00549 0.75ZM5.79391 2.55857C5.00955 2.61557 4.53142 2.72346 4.1561 2.89405C3.42553 3.22612 2.82985 3.74734 2.45035 4.38659C2.25538 4.71499 2.13207 5.13335 2.06694 5.81967C2.0008 6.51647 2 7.4083 2 8.66875V10.3313C2 11.5917 2.0008 12.4835 2.06694 13.1803C2.13207 13.8666 2.25538 14.285 2.45035 14.6134C2.82985 15.2527 3.42553 15.7739 4.1561 16.1059C4.53142 16.2765 5.00955 16.3844 5.79391 16.4414C6.59025 16.4993 7.60949 16.5 9.05 16.5H10.95C12.3905 16.5 13.4097 16.4993 14.2061 16.4414C14.9905 16.3844 15.4686 16.2765 15.8439 16.1059C16.5745 15.7739 17.1702 15.2527 17.5497 14.6134C17.7446 14.285 17.8679 13.8666 17.9331 13.1803C17.9992 12.4835 18 11.5917 18 10.3313V8.66875C18 7.4083 17.9992 6.51647 17.9331 5.81968C17.8679 5.13335 17.7446 4.71499 17.5497 4.38659C17.1702 3.74734 16.5745 3.22612 15.8439 2.89405C15.4686 2.72346 14.9905 2.61557 14.2061 2.55857C13.4097 2.5007 12.3905 2.5 10.95 2.5H9.05C7.60949 2.5 6.59025 2.5007 5.79391 2.55857ZM9.82843 4.91269C10.3807 4.91269 10.8284 5.30444 10.8284 5.78769V10.134L14.3553 11.3071C14.8716 11.4788 15.131 11.9842 14.9347 12.4359C14.7385 12.8876 14.1609 13.1146 13.6447 12.9429L9.47309 11.5553C9.08499 11.4262 8.82843 11.1007 8.82843 10.7374V5.78769C8.82843 5.30444 9.27614 4.91269 9.82843 4.91269Z" fill="#D1DAEF"/>
</svg>
