<svg width="7" height="10" viewBox="0 0 7 10" fill="none" xmlns="http://www.w3.org/2000/svg">
<path d="M0.777138 0H4.30765C4.30765 0.683594 4.30765 1.36914 4.30765 2.05273C4.30586 2.31055 4.41714 2.56445 4.60201 2.72852C4.74919 2.86328 4.94124 2.93359 5.13329 2.93164C5.75611 2.93164 6.37714 2.93164 6.99996 2.93164C6.99996 4.99609 6.99996 7.06055 6.99996 9.12305C7.00175 9.42383 6.84919 9.71875 6.61227 9.87305C6.50457 9.94727 6.38073 9.98438 6.25509 10.002H0.737651C0.597651 9.97851 0.459446 9.93359 0.344574 9.8418C0.130985 9.67969 -0.00183604 9.40234 -4.11631e-05 9.12109C-4.11631e-05 6.38672 -4.11631e-05 3.65234 -4.11631e-05 0.917969C-4.11631e-05 0.8125 0.0089332 0.707031 0.039446 0.607422C0.138164 0.263672 0.446882 0.0117188 0.777138 0ZM1.83432 4.12695C1.69791 4.15234 1.5956 4.30664 1.61893 4.45508C1.63509 4.5957 1.75534 4.70898 1.88637 4.70703C2.95611 4.70703 4.02765 4.70703 5.09919 4.70703C5.18355 4.71094 5.2697 4.67383 5.32355 4.60156C5.38816 4.51953 5.40611 4.39844 5.36483 4.30078C5.32534 4.19531 5.22304 4.12109 5.11893 4.12109C4.07252 4.12109 3.02432 4.12109 1.97791 4.12109C1.92765 4.12109 1.88098 4.11719 1.83432 4.12695ZM1.83432 5.29883C1.66739 5.32812 1.56329 5.54688 1.64227 5.71094C1.68714 5.81836 1.79483 5.88477 1.90252 5.87891C2.97406 5.87891 4.04381 5.87891 5.11534 5.87891C5.22663 5.87891 5.33432 5.79883 5.36842 5.68359C5.41688 5.54883 5.35227 5.38086 5.23022 5.32227C5.16201 5.2832 5.08304 5.29492 5.00945 5.29297C4.00432 5.29297 2.99919 5.29297 1.99406 5.29297C1.94022 5.29297 1.88637 5.28906 1.83432 5.29883ZM1.83432 6.4707C1.69791 6.49609 1.5956 6.65039 1.61893 6.79883C1.63509 6.93945 1.75534 7.05273 1.88637 7.05078C2.92739 7.05078 3.96842 7.05078 5.00945 7.05078C5.09201 7.05078 5.18355 7.06055 5.25534 7.00781C5.38457 6.92773 5.42586 6.72461 5.33791 6.59375C5.28586 6.50781 5.19073 6.46094 5.09739 6.46484C4.06175 6.46484 3.02791 6.46484 1.99227 6.46484C1.94022 6.46484 1.88637 6.46094 1.83432 6.4707ZM1.83432 7.64258C1.69791 7.66797 1.5956 7.82227 1.61893 7.97266C1.63509 8.11328 1.75534 8.22656 1.88457 8.22461C2.59714 8.22461 3.30791 8.22461 4.02047 8.22461C4.10842 8.22852 4.19996 8.18555 4.25201 8.10742C4.31483 8.01953 4.32381 7.89062 4.27534 7.79297C4.23047 7.69922 4.13534 7.63672 4.03842 7.63867C3.35098 7.63867 2.66175 7.63867 1.97432 7.63867C1.92765 7.63672 1.88098 7.63477 1.83432 7.64258Z" fill="#F6F6F7"/>
</svg>
