<svg width="16" height="15" viewBox="0 0 16 15" fill="none" xmlns="http://www.w3.org/2000/svg">
<path d="M0 9.18541C-3.171e-09 8.68969 0.274043 8.24247 0.713845 8.07741C1.92721 7.62204 4.59134 6.79659 7.96026 6.79659C11.3292 6.79659 13.9933 7.62204 15.2067 8.07741C15.6465 8.24247 15.9205 8.68969 15.9205 9.18541C15.9205 10.0707 15.0744 10.7005 14.273 10.4587C12.7787 10.0078 10.4363 9.45275 7.96026 9.45275C5.4842 9.45275 3.14181 10.0078 1.64747 10.4587C0.846155 10.7005 5.66315e-09 10.0707 0 9.18541Z" fill="#98BCDB"/>
<path d="M0.690223 14.824C0.099676 14.4616 -0.10266 13.659 0.238292 13.0314L6.96053 0.65661C7.30149 0.0289614 8.05662 -0.186088 8.64716 0.176285C9.23771 0.538658 9.44005 1.34123 9.09909 1.96888L2.37685 14.3436C2.0359 14.9713 1.28077 15.1863 0.690223 14.824Z" fill="#98BCDB"/>
<path d="M0.690223 14.824C0.099676 14.4616 -0.10266 13.659 0.238292 13.0314L6.96053 0.65661C7.30149 0.0289614 8.05662 -0.186088 8.64716 0.176285C9.23771 0.538658 9.44005 1.34123 9.09909 1.96888L2.37685 14.3436C2.0359 14.9713 1.28077 15.1863 0.690223 14.824Z" fill="white"/>
<path d="M15.3402 14.6859C15.9308 14.3235 16.1331 13.521 15.7922 12.8933L9.14478 0.656354C8.80383 0.028705 8.0487 -0.186343 7.45815 0.17603C6.8676 0.538403 6.66527 1.34097 7.00622 1.96862L13.6536 14.2056C13.9946 14.8332 14.7497 15.0483 15.3402 14.6859Z" fill="#98BCDB"/>
<path d="M0 13.617C-3.171e-09 13.1213 0.274043 12.6741 0.713845 12.509C1.92721 12.0537 4.59134 11.2282 7.96026 11.2282C11.3292 11.2282 13.9933 12.0537 15.2067 12.509C15.6465 12.6741 15.9205 13.1213 15.9205 13.617C15.9205 14.5023 15.0744 15.1321 14.273 14.8903C12.7787 14.4394 10.4363 13.8844 7.96026 13.8844C5.4842 13.8844 3.14181 14.4394 1.64747 14.8903C0.846155 15.1321 5.66315e-09 14.5023 0 13.617Z" fill="#98BCDB"/>
<path d="M13.6958 14.3436L10.952 9.29272C10.6111 8.66507 10.8134 7.8625 11.404 7.50013C11.9945 7.13775 12.7497 7.3528 13.0906 7.98045L15.8344 13.0314C16.1753 13.659 15.973 14.4616 15.3824 14.824C14.7919 15.1863 14.0368 14.9713 13.6958 14.3436Z" fill="#98BCDB"/>
<path d="M13.6958 14.3436L10.952 9.29272C10.6111 8.66507 10.8134 7.8625 11.404 7.50013C11.9945 7.13775 12.7497 7.3528 13.0906 7.98045L15.8344 13.0314C16.1753 13.659 15.973 14.4616 15.3824 14.824C14.7919 15.1863 14.0368 14.9713 13.6958 14.3436Z" fill="white" fill-opacity="0.2"/>
<path d="M6.92772 0.65638L4.18395 5.7073C3.843 6.33495 4.04534 7.13753 4.63588 7.4999C5.22643 7.86227 5.98156 7.64722 6.32251 7.01957L7.6944 4.49411L9.06628 1.96865C9.40724 1.341 9.2049 0.538428 8.61435 0.176055C8.02381 -0.186318 7.26868 0.0287309 6.92772 0.65638Z" fill="#98BCDB"/>
<path d="M15.2067 8.07741C14.1476 7.67993 11.9831 7.00048 9.20943 6.83415C8.5204 6.79283 7.96028 7.39119 7.96028 8.12467C7.96028 8.85815 8.52067 9.4492 9.20928 9.49773C11.209 9.63865 13.033 10.0845 14.273 10.4587C15.0744 10.7005 15.9205 10.0707 15.9205 9.18541C15.9205 8.68969 15.6465 8.24247 15.2067 8.07741Z" fill="#98BCDB"/>
</svg>
