<svg width="14" height="20" viewBox="0 0 14 20" fill="none" xmlns="http://www.w3.org/2000/svg">
<path fill-rule="evenodd" clip-rule="evenodd" d="M0 7C0 3.13401 3.13401 0 7 0C10.866 0 14 3.13401 14 7V13C14 16.866 10.866 20 7 20C3.13401 20 0 16.866 0 13V7ZM7 2C4.23858 2 2 4.23858 2 7V13C2 15.7614 4.23858 18 7 18C9.76142 18 12 15.7614 12 13V7C12 4.23858 9.76142 2 7 2ZM7 5C7.55228 5 8 5.44772 8 6V9C8 9.55229 7.55228 10 7 10C6.44772 10 6 9.55229 6 9V6C6 5.44772 6.44772 5 7 5Z" fill="#FDFDFF"/>
</svg>
